<svg width="96" height="96" viewBox="0 0 96 96" fill="none" xmlns="http://www.w3.org/2000/svg" role="img" aria-labelledby="title desc">
  <title id="title">Second Brain mark</title>
  <desc id="desc">A warm orange orbital mark made of three connected nodes.</desc>
  <defs>
    <linearGradient id="orbital" x1="14" y1="12" x2="82" y2="86" gradientUnits="userSpaceOnUse">
      <stop stop-color="#FF8A3D"/>
      <stop offset="1" stop-color="#C94922"/>
    </linearGradient>
  </defs>
  <path d="M26 31.5C31.9 20.7 43.2 14 56.1 14C73.6 14 87.8 27.8 87.8 44.8C87.8 62.4 73.2 76.6 55.2 76.6C41.6 76.6 30 68.8 24.6 57.5" stroke="url(#orbital)" stroke-width="3" stroke-linecap="round"/>
  <path d="M69.5 58.5C63.8 69.3 52.5 76 39.6 76C22.1 76 7.9 62.2 7.9 45.2C7.9 27.6 22.5 13.4 40.5 13.4C54.1 13.4 65.7 21.2 71.1 32.5" stroke="#F2D8C7" stroke-opacity=".72" stroke-width="3" stroke-linecap="round"/>
  <circle cx="24" cy="31" r="7" fill="#FF8A3D"/>
  <circle cx="72" cy="32" r="7" fill="#F2D8C7"/>
  <circle cx="48" cy="72" r="7" fill="#D96536"/>
</svg>
